<svg version="1.1" id="Layer_1" xmlns="http://www.w3.org/2000/svg" xmlns:xlink="http://www.w3.org/1999/xlink" x="0px" y="0px"
	 width="100%" viewBox="0 0 956 261" enable-background="new 0 0 956 261" xml:space="preserve">
<path fill="#010101" opacity="0.000000" stroke="none" 
	d="
M620.000000,262.000000 
	C413.333344,262.000000 207.166672,262.000000 1.000000,262.000000 
	C1.000000,175.000000 1.000000,88.000000 1.000000,1.000000 
	C319.666656,1.000000 638.333313,1.000000 957.000000,1.000000 
	C957.000000,88.000000 957.000000,175.000000 957.000000,262.000000 
	C844.833313,262.000000 732.666687,262.000000 620.000000,262.000000 
M71.277809,67.242805 
	C68.796494,56.583191 66.315178,45.923576 63.829514,35.245274 
	C51.714054,35.245274 39.931656,35.245274 27.709753,35.245274 
	C42.214489,89.974129 56.641541,144.409866 71.021736,198.668823 
	C83.585564,198.668823 95.540344,198.668823 107.642746,198.668823 
	C116.695084,161.810120 125.693512,125.170952 134.691940,88.531769 
	C134.997864,88.602509 135.303802,88.673241 135.609726,88.743973 
	C144.744415,125.381805 153.879105,162.019638 163.040436,198.764359 
	C175.112244,198.764359 186.906006,198.764359 198.964310,198.764359 
	C213.644623,144.236618 228.290970,89.835075 242.974579,35.295109 
	C230.913971,35.295109 219.307571,35.295109 207.500351,35.295109 
	C198.612991,72.579880 189.769913,109.678932 180.926834,146.777985 
	C178.762344,141.260925 177.391876,135.792114 176.030060,130.321152 
	C168.433701,99.803490 160.858307,69.280556 153.182220,38.782967 
	C152.840317,37.424564 151.612808,35.238712 150.757446,35.219322 
	C139.983597,34.975109 129.202301,35.058979 118.543144,35.058979 
	C109.031662,72.275475 99.674561,108.887894 90.317467,145.500305 
	C90.031471,145.436386 89.745468,145.372452 89.459473,145.308533 
	C83.465881,119.557198 77.472290,93.805862 71.277809,67.242805 
M650.795471,201.346100 
	C663.597290,200.064560 673.567566,193.898682 681.701660,184.081223 
	C700.090454,161.886826 698.138062,120.595062 685.215271,100.445824 
	C672.855896,81.175148 649.277954,72.192299 627.302612,78.845032 
	C618.601318,81.479225 611.813843,86.765434 605.501160,93.793724 
	C605.501160,89.317802 605.501160,84.841881 605.501160,80.516884 
	C594.725281,80.516884 584.671814,80.516884 574.581177,80.516884 
	C574.581177,133.995117 574.581177,187.048309 574.581177,240.249237 
	C585.575989,240.249237 596.256836,240.249237 607.420898,240.249237 
	C607.420898,221.661224 607.420898,203.487823 607.420898,184.782745 
	C620.530640,199.366638 631.909729,203.754395 650.795471,201.346100 
M365.305023,198.872360 
	C365.981476,197.333527 367.238312,195.798096 367.247284,194.255371 
	C367.380310,171.426285 367.430511,148.595749 367.295807,125.766769 
	C367.262512,120.126320 366.886597,114.428406 365.995209,108.864731 
	C364.060760,96.790520 358.970520,86.375359 347.157745,81.226952 
	C336.047821,76.384872 324.309692,75.306412 312.500092,78.787025 
	C302.814697,81.641586 295.325684,87.695450 288.781586,97.065071 
	C288.781586,75.622246 288.781586,55.585690 288.781586,35.379768 
	C277.570862,35.379768 266.861328,35.379768 256.217926,35.379768 
	C256.217926,89.961624 256.217926,144.206924 256.217926,198.678619 
	C267.090576,198.678619 277.664368,198.678619 288.702240,198.678619 
	C288.702240,197.110245 288.701355,195.812012 288.702393,194.513794 
	C288.717651,175.350601 288.609985,156.186035 288.824829,137.025070 
	C288.887939,131.399780 289.261475,125.642723 290.541626,120.192413 
	C293.976868,105.566643 309.978180,98.338081 323.674500,104.788483 
	C331.603119,108.522530 333.806793,115.810074 333.996429,123.414909 
	C334.557037,145.894135 334.505981,168.388641 334.688049,190.877213 
	C334.708984,193.464279 334.690857,196.051682 334.690857,198.878662 
	C345.052582,198.878662 354.693268,198.878662 365.305023,198.872360 
M762.056396,201.551727 
	C766.379517,201.667938 770.708130,201.985641 775.024780,201.866989 
	C799.175659,201.203186 819.601074,184.871368 824.698059,161.938919 
	C815.837708,161.938919 807.060547,161.870529 798.287720,162.034393 
	C797.304626,162.052750 795.987488,163.181061 795.433777,164.144379 
	C791.516113,170.959915 785.372070,174.515884 778.038757,176.424149 
	C757.690125,181.719193 740.290466,167.882736 742.333557,147.482315 
	C770.483093,147.482315 798.688477,147.482315 827.801758,147.482315 
	C827.188538,139.816986 827.258057,132.605911 825.936279,125.659622 
	C821.766052,103.745781 810.607666,86.689117 788.474854,79.931656 
	C765.142822,72.808060 743.412231,76.909180 725.910767,94.811790 
	C712.191101,108.845909 707.831360,126.525299 708.987976,145.820068 
	C710.813110,176.266571 730.976929,197.809067 762.056396,201.551727 
M482.302277,200.304062 
	C491.253876,200.842514 500.228210,202.049316 509.151184,201.745926 
	C519.699585,201.387283 529.881104,198.686401 538.916565,192.750351 
	C552.213562,184.014526 556.809692,171.299576 555.147461,156.079117 
	C553.631958,142.202652 543.818604,135.491364 531.862854,131.536148 
	C523.512268,128.773605 514.759644,127.251793 506.287628,124.823380 
	C499.446625,122.862503 492.612183,120.721985 486.052917,117.992844 
	C482.026978,116.317734 480.405579,112.415497 481.206543,107.982841 
	C481.969513,103.760277 484.804993,101.136147 488.837341,100.324577 
	C492.724701,99.542213 496.752167,99.100822 500.715546,99.117126 
	C513.275879,99.168762 517.884949,102.716713 521.611023,114.717117 
	C531.685730,114.717117 541.790283,114.717117 552.220093,114.717117 
	C550.963379,101.064484 545.137756,90.631012 533.233093,84.073967 
	C520.311462,76.956841 506.221283,76.302032 491.942261,77.203621 
	C480.150726,77.948135 468.783783,80.191818 459.451660,88.180115 
	C441.241791,103.767708 445.214233,131.751709 467.124359,140.922806 
	C473.521454,143.600464 480.444855,145.021408 487.128296,147.014130 
	C496.655273,149.854660 506.270386,152.436340 515.671936,155.644196 
	C519.948181,157.103287 522.949890,160.492935 522.733093,165.519424 
	C522.505371,170.799347 519.755249,174.513809 515.084045,176.935303 
	C498.577240,185.492218 481.613251,178.311127 475.988434,160.430389 
	C465.907104,160.430389 455.858124,160.430389 445.616974,160.430389 
	C445.667419,169.252548 448.071259,176.856415 453.254059,183.547150 
	C460.450409,192.837372 470.269409,197.674973 482.302277,200.304062 
M850.736755,80.112450 
	C849.306274,80.239868 847.875793,80.367287 846.410645,80.497803 
	C846.410645,120.084892 846.410645,159.287033 846.410645,198.724854 
	C857.455200,198.724854 868.150696,198.724854 879.143555,198.724854 
	C879.143555,179.657120 879.007263,161.016525 879.237549,142.380447 
	C879.296509,137.610657 880.055725,132.732605 881.289062,128.116943 
	C884.521545,116.019249 893.091553,108.906181 905.588562,107.868782 
	C910.963135,107.422623 916.405579,107.794060 922.020752,107.794060 
	C922.020752,97.854752 922.020752,87.913719 922.020752,77.441963 
	C902.136658,74.969147 888.144226,83.468376 877.344849,99.799736 
	C877.344849,93.310257 877.344849,86.820770 877.344849,80.107117 
	C868.332642,80.107117 860.012390,80.107117 850.736755,80.112450 
M425.705566,130.500168 
	C425.705566,113.894188 425.705566,97.288208 425.705566,80.523834 
	C414.482086,80.523834 403.790070,80.523834 393.232300,80.523834 
	C393.232300,120.146042 393.232300,159.364883 393.232300,198.651184 
	C404.140076,198.651184 414.709290,198.651184 425.705048,198.651184 
	C425.705048,176.061096 425.705048,153.780640 425.705566,130.500168 
M392.908508,57.392799 
	C392.978088,58.836308 393.047668,60.279816 393.115967,61.696667 
	C404.121918,61.696667 414.783722,61.696667 425.347168,61.696667 
	C425.347168,52.586861 425.347168,43.889454 425.347168,35.309803 
	C414.384369,35.309803 403.809448,35.309803 392.900848,35.309803 
	C392.900848,42.516678 392.900848,49.463406 392.908508,57.392799 
z"/>
<path fill="#FCFCFC" opacity="1.000000" stroke="none" 
	d="
M71.378250,67.648666 
	C77.472290,93.805862 83.465881,119.557198 89.459473,145.308533 
	C89.745468,145.372452 90.031471,145.436386 90.317467,145.500305 
	C99.674561,108.887894 109.031662,72.275475 118.543144,35.058979 
	C129.202301,35.058979 139.983597,34.975109 150.757446,35.219322 
	C151.612808,35.238712 152.840317,37.424564 153.182220,38.782967 
	C160.858307,69.280556 168.433701,99.803490 176.030060,130.321152 
	C177.391876,135.792114 178.762344,141.260925 180.926834,146.777985 
	C189.769913,109.678932 198.612991,72.579880 207.500351,35.295109 
	C219.307571,35.295109 230.913971,35.295109 242.974579,35.295109 
	C228.290970,89.835075 213.644623,144.236618 198.964310,198.764359 
	C186.906006,198.764359 175.112244,198.764359 163.040436,198.764359 
	C153.879105,162.019638 144.744415,125.381805 135.609726,88.743973 
	C135.303802,88.673241 134.997864,88.602509 134.691940,88.531769 
	C125.693512,125.170952 116.695084,161.810120 107.642746,198.668823 
	C95.540344,198.668823 83.585564,198.668823 71.021736,198.668823 
	C56.641541,144.409866 42.214489,89.974129 27.709753,35.245274 
	C39.931656,35.245274 51.714054,35.245274 63.829514,35.245274 
	C66.315178,45.923576 68.796494,56.583191 71.378250,67.648666 
z"/>
<path fill="#FBFBFB" opacity="1.000000" stroke="none" 
	d="
M650.353516,201.434540 
	C631.909729,203.754395 620.530640,199.366638 607.420898,184.782745 
	C607.420898,203.487823 607.420898,221.661224 607.420898,240.249237 
	C596.256836,240.249237 585.575989,240.249237 574.581177,240.249237 
	C574.581177,187.048309 574.581177,133.995117 574.581177,80.516884 
	C584.671814,80.516884 594.725281,80.516884 605.501160,80.516884 
	C605.501160,84.841881 605.501160,89.317802 605.501160,93.793724 
	C611.813843,86.765434 618.601318,81.479225 627.302612,78.845032 
	C649.277954,72.192299 672.855896,81.175148 685.215271,100.445824 
	C698.138062,120.595062 700.090454,161.886826 681.701660,184.081223 
	C673.567566,193.898682 663.597290,200.064560 650.353516,201.434540 
M625.769775,102.938332 
	C618.176331,105.125992 612.993591,110.148232 610.172485,117.302177 
	C604.373657,132.006973 604.192383,146.950928 610.158447,161.611359 
	C614.551575,172.406570 623.691956,177.638870 635.612854,177.206009 
	C647.408203,176.777725 655.156433,171.098999 659.218750,159.802292 
	C663.471924,147.974716 663.502808,135.838745 660.476929,123.885391 
	C656.171326,106.876976 643.152954,99.061623 625.769775,102.938332 
z"/>
<path fill="#FCFCFC" opacity="1.000000" stroke="none" 
	d="
M364.819489,198.875519 
	C354.693268,198.878662 345.052582,198.878662 334.690857,198.878662 
	C334.690857,196.051682 334.708984,193.464279 334.688049,190.877213 
	C334.505981,168.388641 334.557037,145.894135 333.996429,123.414909 
	C333.806793,115.810074 331.603119,108.522530 323.674500,104.788483 
	C309.978180,98.338081 293.976868,105.566643 290.541626,120.192413 
	C289.261475,125.642723 288.887939,131.399780 288.824829,137.025070 
	C288.609985,156.186035 288.717651,175.350601 288.702393,194.513794 
	C288.701355,195.812012 288.702240,197.110245 288.702240,198.678619 
	C277.664368,198.678619 267.090576,198.678619 256.217926,198.678619 
	C256.217926,144.206924 256.217926,89.961624 256.217926,35.379768 
	C266.861328,35.379768 277.570862,35.379768 288.781586,35.379768 
	C288.781586,55.585690 288.781586,75.622246 288.781586,97.065071 
	C295.325684,87.695450 302.814697,81.641586 312.500092,78.787025 
	C324.309692,75.306412 336.047821,76.384872 347.157745,81.226952 
	C358.970520,86.375359 364.060760,96.790520 365.995209,108.864731 
	C366.886597,114.428406 367.262512,120.126320 367.295807,125.766769 
	C367.430511,148.595749 367.380310,171.426285 367.247284,194.255371 
	C367.238312,195.798096 365.981476,197.333527 364.819489,198.875519 
z"/>
<path fill="#FBFBFB" opacity="1.000000" stroke="none" 
	d="
M761.612549,201.477921 
	C730.976929,197.809067 710.813110,176.266571 708.987976,145.820068 
	C707.831360,126.525299 712.191101,108.845909 725.910767,94.811790 
	C743.412231,76.909180 765.142822,72.808060 788.474854,79.931656 
	C810.607666,86.689117 821.766052,103.745781 825.936279,125.659622 
	C827.258057,132.605911 827.188538,139.816986 827.801758,147.482315 
	C798.688477,147.482315 770.483093,147.482315 742.333557,147.482315 
	C740.290466,167.882736 757.690125,181.719193 778.038757,176.424149 
	C785.372070,174.515884 791.516113,170.959915 795.433777,164.144379 
	C795.987488,163.181061 797.304626,162.052750 798.287720,162.034393 
	C807.060547,161.870529 815.837708,161.938919 824.698059,161.938919 
	C819.601074,184.871368 799.175659,201.203186 775.024780,201.866989 
	C770.708130,201.985641 766.379517,201.667938 761.612549,201.477921 
M777.497742,126.805138 
	C782.943115,126.805138 788.388428,126.805138 793.855408,126.805138 
	C792.775635,109.778976 782.889221,101.171165 765.737427,101.907845 
	C752.137878,102.491959 741.995056,113.035179 742.172729,126.806862 
	C753.608521,126.806862 765.053467,126.806862 777.497742,126.805138 
z"/>
<path fill="#FBFBFB" opacity="1.000000" stroke="none" 
	d="
M481.890228,200.225159 
	C470.269409,197.674973 460.450409,192.837372 453.254059,183.547150 
	C448.071259,176.856415 445.667419,169.252548 445.616974,160.430389 
	C455.858124,160.430389 465.907104,160.430389 475.988434,160.430389 
	C481.613251,178.311127 498.577240,185.492218 515.084045,176.935303 
	C519.755249,174.513809 522.505371,170.799347 522.733093,165.519424 
	C522.949890,160.492935 519.948181,157.103287 515.671936,155.644196 
	C506.270386,152.436340 496.655273,149.854660 487.128296,147.014130 
	C480.444855,145.021408 473.521454,143.600464 467.124359,140.922806 
	C445.214233,131.751709 441.241791,103.767708 459.451660,88.180115 
	C468.783783,80.191818 480.150726,77.948135 491.942261,77.203621 
	C506.221283,76.302032 520.311462,76.956841 533.233093,84.073967 
	C545.137756,90.631012 550.963379,101.064484 552.220093,114.717117 
	C541.790283,114.717117 531.685730,114.717117 521.611023,114.717117 
	C517.884949,102.716713 513.275879,99.168762 500.715546,99.117126 
	C496.752167,99.100822 492.724701,99.542213 488.837341,100.324577 
	C484.804993,101.136147 481.969513,103.760277 481.206543,107.982841 
	C480.405579,112.415497 482.026978,116.317734 486.052917,117.992844 
	C492.612183,120.721985 499.446625,122.862503 506.287628,124.823380 
	C514.759644,127.251793 523.512268,128.773605 531.862854,131.536148 
	C543.818604,135.491364 553.631958,142.202652 555.147461,156.079117 
	C556.809692,171.299576 552.213562,184.014526 538.916565,192.750351 
	C529.881104,198.686401 519.699585,201.387283 509.151184,201.745926 
	C500.228210,202.049316 491.253876,200.842514 481.890228,200.225159 
z"/>
<path fill="#FBFBFB" opacity="1.000000" stroke="none" 
	d="
M851.214478,80.109787 
	C860.012390,80.107117 868.332642,80.107117 877.344849,80.107117 
	C877.344849,86.820770 877.344849,93.310257 877.344849,99.799736 
	C888.144226,83.468376 902.136658,74.969147 922.020752,77.441963 
	C922.020752,87.913719 922.020752,97.854752 922.020752,107.794060 
	C916.405579,107.794060 910.963135,107.422623 905.588562,107.868782 
	C893.091553,108.906181 884.521545,116.019249 881.289062,128.116943 
	C880.055725,132.732605 879.296509,137.610657 879.237549,142.380447 
	C879.007263,161.016525 879.143555,179.657120 879.143555,198.724854 
	C868.150696,198.724854 857.455200,198.724854 846.410645,198.724854 
	C846.410645,159.287033 846.410645,120.084892 846.410645,80.497803 
	C847.875793,80.367287 849.306274,80.239868 851.214478,80.109787 
z"/>
<path fill="#FAFAFA" opacity="1.000000" stroke="none" 
	d="
M425.705322,131.000183 
	C425.705048,153.780640 425.705048,176.061096 425.705048,198.651184 
	C414.709290,198.651184 404.140076,198.651184 393.232300,198.651184 
	C393.232300,159.364883 393.232300,120.146042 393.232300,80.523834 
	C403.790070,80.523834 414.482086,80.523834 425.705566,80.523834 
	C425.705566,97.288208 425.705566,113.894188 425.705322,131.000183 
z"/>
<path fill="#FAFAFA" opacity="1.000000" stroke="none" 
	d="
M392.904663,56.901466 
	C392.900848,49.463406 392.900848,42.516678 392.900848,35.309803 
	C403.809448,35.309803 414.384369,35.309803 425.347168,35.309803 
	C425.347168,43.889454 425.347168,52.586861 425.347168,61.696667 
	C414.783722,61.696667 404.121918,61.696667 393.115967,61.696667 
	C393.047668,60.279816 392.978088,58.836308 392.904663,56.901466 
z"/>
<path fill="#030303" opacity="1.000000" stroke="none" 
	d="
M626.173340,102.834396 
	C643.152954,99.061623 656.171326,106.876976 660.476929,123.885391 
	C663.502808,135.838745 663.471924,147.974716 659.218750,159.802292 
	C655.156433,171.098999 647.408203,176.777725 635.612854,177.206009 
	C623.691956,177.638870 614.551575,172.406570 610.158447,161.611359 
	C604.192383,146.950928 604.373657,132.006973 610.172485,117.302177 
	C612.993591,110.148232 618.176331,105.125992 626.173340,102.834396 
z"/>
<path fill="#080808" opacity="1.000000" stroke="none" 
	d="
M776.998047,126.806000 
	C765.053467,126.806862 753.608521,126.806862 742.172729,126.806862 
	C741.995056,113.035179 752.137878,102.491959 765.737427,101.907845 
	C782.889221,101.171165 792.775635,109.778976 793.855408,126.805138 
	C788.388428,126.805138 782.943115,126.805138 776.998047,126.806000 
z"/>
</svg>