<svg version="1.1" id="Layer_1" xmlns="http://www.w3.org/2000/svg" xmlns:xlink="http://www.w3.org/1999/xlink" x="0px" y="0px"
	 width="100%" viewBox="0 0 363 363" enable-background="new 0 0 363 363" xml:space="preserve">
<path fill="#010101" opacity="0.000000" stroke="none" 
	d="
M364.000000,133.000000 
	C364.000000,210.333298 364.000000,287.166595 364.000000,363.999939 
	C243.000076,363.999939 122.000145,363.999939 1.000159,363.999969 
	C1.000106,243.000107 1.000106,122.000229 1.000053,1.000257 
	C121.999847,1.000171 242.999695,1.000171 363.999756,1.000086 
	C364.000000,44.833332 364.000000,88.666664 364.000000,133.000000 
M35.485828,130.972748 
	C27.206009,133.947296 18.974117,137.067017 10.622593,139.824387 
	C7.317725,140.915543 6.053163,142.384369 6.061388,146.096100 
	C6.202038,209.571518 6.163190,273.047333 6.178291,336.523071 
	C6.178630,337.947723 6.347649,339.372314 6.426606,340.617493 
	C124.316444,340.617493 241.701935,340.617493 359.025024,340.617493 
	C359.148682,339.956757 359.263580,339.629395 359.263672,339.301971 
	C359.283142,274.493500 359.262085,209.684937 359.397156,144.876694 
	C359.404297,141.460358 357.618286,140.807037 355.157410,139.933289 
	C338.406433,133.985825 321.718353,127.858887 304.925537,122.033379 
	C301.347656,120.792198 300.227875,119.042450 300.279266,115.257927 
	C300.514587,97.934319 300.396851,80.605888 300.402130,63.279190 
	C300.405640,51.670475 300.402771,40.061756 300.402771,28.429333 
	C221.720749,28.429333 143.549133,28.429333 65.188087,28.429333 
	C65.188087,29.645769 65.188118,30.466606 65.188080,31.287443 
	C65.186966,59.443336 65.114433,87.599648 65.277390,115.754593 
	C65.297203,119.177292 64.289543,120.785728 61.101501,121.859123 
	C52.760731,124.667404 44.523659,127.783676 35.485828,130.972748 
z"/>
<path fill="#FEFEFE" opacity="1.000000" stroke="none" 
	d="
M35.865540,130.874969 
	C44.523659,127.783676 52.760731,124.667404 61.101501,121.859123 
	C64.289543,120.785728 65.297203,119.177292 65.277390,115.754593 
	C65.114433,87.599648 65.186966,59.443336 65.188080,31.287443 
	C65.188118,30.466606 65.188087,29.645769 65.188087,28.429333 
	C143.549133,28.429333 221.720749,28.429333 300.402771,28.429333 
	C300.402771,40.061756 300.405640,51.670475 300.402130,63.279190 
	C300.396851,80.605888 300.514587,97.934319 300.279266,115.257927 
	C300.227875,119.042450 301.347656,120.792198 304.925537,122.033379 
	C321.718353,127.858887 338.406433,133.985825 355.157410,139.933289 
	C357.618286,140.807037 359.404297,141.460358 359.397156,144.876694 
	C359.262085,209.684937 359.283142,274.493500 359.263672,339.301971 
	C359.263580,339.629395 359.148682,339.956757 359.025024,340.617493 
	C241.701935,340.617493 124.316444,340.617493 6.426606,340.617493 
	C6.347649,339.372314 6.178630,337.947723 6.178291,336.523071 
	C6.163190,273.047333 6.202038,209.571518 6.061388,146.096100 
	C6.053163,142.384369 7.317725,140.915543 10.622593,139.824387 
	C18.974117,137.067017 27.206009,133.947296 35.865540,130.874969 
M265.642609,210.112457 
	C275.575928,204.354446 285.517151,198.610046 295.440308,192.834595 
	C305.509491,186.974182 315.612427,181.169022 325.599091,175.170700 
	C330.912872,171.979065 331.913422,166.558060 327.938171,163.324295 
	C324.781952,160.756760 321.404144,161.489166 318.157928,163.363251 
	C309.080383,168.603867 300.016571,173.868347 290.929962,179.093216 
	C289.878906,179.697586 288.718475,180.111832 287.067017,180.859467 
	C287.067017,134.068527 287.067017,87.975243 287.067017,41.667168 
	C217.326218,41.667168 147.928040,41.667168 77.852753,41.667168 
	C77.852753,88.073044 77.852753,134.203079 77.852753,181.094788 
	C74.590660,179.214157 72.161285,177.825653 69.743378,176.417435 
	C62.122154,171.978745 54.545692,167.461197 46.871174,163.116806 
	C42.420639,160.597458 38.157673,161.583389 35.980343,165.333344 
	C33.873772,168.961426 35.112057,172.241394 39.738621,175.223343 
	C40.716984,175.853912 41.731476,176.429321 42.738213,177.014862 
	C82.010323,199.856552 121.270378,222.719025 160.563232,245.524979 
	C175.376266,254.122604 190.199448,254.097351 205.042297,245.401962 
	C225.000839,233.709641 245.024536,222.128571 265.642609,210.112457 
z"/>
<path fill="#020202" opacity="1.000000" stroke="none" 
	d="
M265.331421,210.306091 
	C245.024536,222.128571 225.000839,233.709641 205.042297,245.401962 
	C190.199448,254.097351 175.376266,254.122604 160.563232,245.524979 
	C121.270378,222.719025 82.010323,199.856552 42.738213,177.014862 
	C41.731476,176.429321 40.716984,175.853912 39.738621,175.223343 
	C35.112057,172.241394 33.873772,168.961426 35.980343,165.333344 
	C38.157673,161.583389 42.420639,160.597458 46.871174,163.116806 
	C54.545692,167.461197 62.122154,171.978745 69.743378,176.417435 
	C72.161285,177.825653 74.590660,179.214157 77.852753,181.094788 
	C77.852753,134.203079 77.852753,88.073044 77.852753,41.667168 
	C147.928040,41.667168 217.326218,41.667168 287.067017,41.667168 
	C287.067017,87.975243 287.067017,134.068527 287.067017,180.859467 
	C288.718475,180.111832 289.878906,179.697586 290.929962,179.093216 
	C300.016571,173.868347 309.080383,168.603867 318.157928,163.363251 
	C321.404144,161.489166 324.781952,160.756760 327.938171,163.324295 
	C331.913422,166.558060 330.912872,171.979065 325.599091,175.170700 
	C315.612427,181.169022 305.509491,186.974182 295.440308,192.834595 
	C285.517151,198.610046 275.575928,204.354446 265.331421,210.306091 
M146.508850,170.759674 
	C174.329453,170.774475 202.150070,170.790588 229.970673,170.802979 
	C235.467392,170.805435 238.827759,168.389297 239.027679,164.309799 
	C239.228195,160.218384 236.265259,157.526840 230.960983,157.517120 
	C198.808838,157.458252 166.656448,157.462616 134.504272,157.521362 
	C129.324646,157.530823 126.600716,159.845596 126.449005,163.820190 
	C126.299286,167.742508 129.594666,170.692245 134.521835,170.825851 
	C138.182693,170.925079 141.849869,170.790237 146.508850,170.759674 
M140.550354,125.224281 
	C170.032303,125.226067 199.514267,125.231827 228.996216,125.219101 
	C230.655350,125.218384 232.792297,125.683754 233.870651,124.850288 
	C235.902832,123.279602 238.424713,121.041458 238.667343,118.850861 
	C238.877335,116.954857 236.501541,114.422218 234.705093,112.792084 
	C233.706253,111.885696 231.555115,112.069138 229.922974,112.067307 
	C198.608856,112.032143 167.294693,112.040337 135.980530,112.050468 
	C134.651917,112.050896 133.282639,111.969597 132.002533,112.248596 
	C128.459930,113.020729 126.385994,115.357178 126.569328,118.958626 
	C126.750671,122.521126 128.867249,124.820435 132.582977,125.120110 
	C134.900665,125.307037 137.242065,125.199638 140.550354,125.224281 
M219.106873,79.929955 
	C230.604813,79.942253 242.103104,80.012848 253.600510,79.940605 
	C258.825317,79.907784 261.867218,77.210777 261.704712,73.125290 
	C261.546570,69.149940 258.767761,66.877380 253.659439,66.846672 
	C242.661591,66.780571 231.662933,66.852745 220.664871,66.807396 
	C216.763885,66.791313 213.595230,67.912842 212.896179,72.174538 
	C212.227737,76.249687 214.171921,78.869820 219.106873,79.929955 
z"/>
<path fill="#F8F8F8" opacity="1.000000" stroke="none" 
	d="
M146.011536,170.759674 
	C141.849869,170.790237 138.182693,170.925079 134.521835,170.825851 
	C129.594666,170.692245 126.299286,167.742508 126.449005,163.820190 
	C126.600716,159.845596 129.324646,157.530823 134.504272,157.521362 
	C166.656448,157.462616 198.808838,157.458252 230.960983,157.517120 
	C236.265259,157.526840 239.228195,160.218384 239.027679,164.309799 
	C238.827759,168.389297 235.467392,170.805435 229.970673,170.802979 
	C202.150070,170.790588 174.329453,170.774475 146.011536,170.759674 
z"/>
<path fill="#FBFBFB" opacity="1.000000" stroke="none" 
	d="
M140.061584,125.224304 
	C137.242065,125.199638 134.900665,125.307037 132.582977,125.120110 
	C128.867249,124.820435 126.750671,122.521126 126.569328,118.958626 
	C126.385994,115.357178 128.459930,113.020729 132.002533,112.248596 
	C133.282639,111.969597 134.651917,112.050896 135.980530,112.050468 
	C167.294693,112.040337 198.608856,112.032143 229.922974,112.067307 
	C231.555115,112.069138 233.706253,111.885696 234.705093,112.792084 
	C236.501541,114.422218 238.877335,116.954857 238.667343,118.850861 
	C238.424713,121.041458 235.902832,123.279602 233.870651,124.850288 
	C232.792297,125.683754 230.655350,125.218384 228.996216,125.219101 
	C199.514267,125.231827 170.032303,125.226067 140.061584,125.224304 
z"/>
<path fill="#FAFAFA" opacity="1.000000" stroke="none" 
	d="
M218.673721,79.875916 
	C214.171921,78.869820 212.227737,76.249687 212.896179,72.174538 
	C213.595230,67.912842 216.763885,66.791313 220.664871,66.807396 
	C231.662933,66.852745 242.661591,66.780571 253.659439,66.846672 
	C258.767761,66.877380 261.546570,69.149940 261.704712,73.125290 
	C261.867218,77.210777 258.825317,79.907784 253.600510,79.940605 
	C242.103104,80.012848 230.604813,79.942253 218.673721,79.875916 
z"/>
</svg>