<svg version="1.1" id="Layer_1" xmlns="http://www.w3.org/2000/svg" xmlns:xlink="http://www.w3.org/1999/xlink" x="0px" y="0px"
	 width="100%" viewBox="0 0 955 261" enable-background="new 0 0 955 261" xml:space="preserve">
<path fill="#010101" opacity="0.000000" stroke="none" 
	d="
M613.000000,262.000000 
	C408.666656,262.000000 204.833328,262.000000 1.000000,262.000000 
	C1.000000,175.000000 1.000000,88.000000 1.000000,1.000000 
	C319.333344,1.000000 637.666687,1.000000 956.000000,1.000000 
	C956.000000,88.000000 956.000000,175.000000 956.000000,262.000000 
	C841.833313,262.000000 727.666687,262.000000 613.000000,262.000000 
M264.491241,242.122208 
	C268.421936,242.122208 272.352600,242.122208 276.418274,242.122208 
	C276.418274,197.419617 276.379578,153.425125 276.497803,109.431068 
	C276.506470,106.201080 274.657867,105.646179 272.423645,104.851822 
	C260.371246,100.566689 248.333481,96.240410 235.963638,91.811234 
	C235.963638,70.876488 235.963638,50.127525 235.963638,29.384796 
	C182.142014,29.384796 128.760223,29.384796 75.145866,29.384796 
	C75.145866,49.039021 75.079323,68.353783 75.213013,87.667168 
	C75.234665,90.794792 74.406540,92.321243 71.274323,93.385506 
	C59.174026,97.496941 47.193977,101.962250 35.329269,106.237991 
	C35.329269,151.674622 35.329269,196.759933 35.329269,242.120163 
	C111.587051,242.120163 187.540894,242.120163 264.491241,242.122208 
M351.395081,58.994968 
	C350.571960,55.445110 349.748871,51.895252 348.971619,48.543087 
	C340.746063,48.543087 332.873016,48.543087 324.903442,48.543087 
	C324.962463,49.404015 324.917847,49.910545 325.040192,50.372887 
	C334.321045,85.437355 343.652191,120.488609 352.835846,155.578476 
	C353.553253,158.319626 354.834076,158.885101 357.350220,158.812881 
	C362.839325,158.655304 368.359802,158.448807 373.821442,158.865616 
	C377.728882,159.163803 378.883392,157.550690 379.703888,154.103745 
	C384.713928,133.056595 389.928833,112.058144 395.105988,91.050995 
	C395.455872,89.631386 396.056305,88.273521 396.540192,86.886940 
	C398.125122,88.629829 398.619324,90.170738 399.011566,91.737190 
	C404.306610,112.882797 409.549316,134.041748 414.959229,155.157867 
	C415.313477,156.540466 416.878540,158.604935 417.953003,158.650803 
	C425.221741,158.960968 432.510040,158.812683 439.997528,158.812683 
	C449.947845,121.840553 459.795319,85.250557 469.700562,48.445976 
	C461.446106,48.445976 453.701111,48.445976 445.699463,48.445976 
	C439.750610,73.371826 433.850922,98.091736 427.951233,122.811653 
	C427.689789,122.814926 427.428345,122.818199 427.166901,122.821472 
	C421.004150,98.046211 414.841431,73.270958 408.600494,48.181240 
	C402.077393,48.181240 395.761932,48.334099 389.459595,48.112843 
	C386.570953,48.011433 385.431152,48.947330 384.775574,51.776283 
	C382.671661,60.854965 380.246033,69.859238 377.932037,78.889030 
	C374.262024,93.210426 370.581909,107.529236 366.906067,121.849144 
	C366.634277,121.851402 366.362488,121.853661 366.090698,121.855919 
	C361.279083,101.166580 356.467468,80.477242 351.395081,58.994968 
M749.975342,78.265182 
	C736.378662,74.589310 724.053284,75.861702 713.851196,88.749947 
	C713.851196,84.556938 713.851196,81.694557 713.851196,79.092911 
	C706.597656,79.092911 699.866821,79.092911 693.258057,79.092911 
	C693.258057,115.164810 693.258057,150.841995 693.258057,186.692719 
	C700.684326,186.692719 707.737976,186.692719 715.276489,186.692719 
	C715.276489,174.276794 715.276489,162.260376 715.276489,149.765350 
	C716.211609,150.415848 716.644653,150.619492 716.949890,150.943481 
	C730.434692,165.257538 753.336182,164.154648 765.417419,148.635849 
	C774.465698,137.013031 775.783936,123.594200 773.759460,109.764694 
	C771.669312,95.485931 765.179138,83.951958 749.975342,78.265182 
M510.739288,80.129349 
	C507.506531,82.779121 504.273804,85.428894 500.479401,88.539032 
	C500.479401,74.884323 500.479401,61.671207 500.479401,48.483078 
	C492.839111,48.483078 485.770905,48.483078 478.635590,48.483078 
	C478.635590,85.353462 478.635590,121.899597 478.635590,158.460358 
	C486.028198,158.460358 493.086609,158.460358 500.521393,158.460358 
	C500.521393,146.174866 500.443756,134.210541 500.558472,122.248070 
	C500.606232,117.264267 500.604187,112.206467 501.433014,107.319397 
	C503.027618,97.917343 508.903992,93.583878 518.353577,94.098396 
	C526.450317,94.539253 530.721069,99.153488 531.047180,108.966354 
	C531.445374,120.945160 531.285828,132.942703 531.351685,144.932236 
	C531.376099,149.387070 531.355652,153.842148 531.355652,158.523224 
	C538.932373,158.523224 545.986389,158.523224 553.266785,158.523224 
	C553.371643,157.484512 553.523315,156.681961 553.523254,155.879410 
	C553.522461,140.057053 553.685181,124.231270 553.387085,108.414246 
	C553.287903,103.149971 552.442749,97.795197 551.145447,92.683060 
	C549.298523,85.405090 544.334167,80.401535 537.158264,78.319130 
	C528.508179,75.808929 519.756531,75.326767 510.739288,80.129349 
M832.847656,142.749802 
	C816.874695,147.314514 805.948059,139.929947 806.197815,124.307083 
	C825.110840,124.307083 844.037781,124.307083 863.996033,124.307083 
	C863.340637,118.243019 863.319214,112.559052 862.047791,107.169968 
	C853.720886,71.873833 816.626587,70.232689 798.027588,85.709373 
	C782.529541,98.605583 778.812683,124.716248 789.823914,142.791901 
	C799.570923,158.792282 823.162720,165.757370 841.573914,157.935715 
	C852.210388,153.416992 858.519287,145.151352 861.891846,133.793518 
	C857.939392,133.793518 854.456909,133.795792 850.974365,133.792953 
	C846.436035,133.789261 841.765076,132.878952 839.205872,138.547409 
	C838.402344,140.327011 835.509827,141.163437 832.847656,142.749802 
M618.755188,118.855705 
	C624.622681,120.670036 630.482605,122.509178 636.359802,124.291534 
	C641.917053,125.976868 647.693481,127.146477 652.964539,129.470474 
	C655.190796,130.452026 657.827698,133.924118 657.659729,136.058014 
	C657.443848,138.799301 655.196777,142.389160 652.773438,143.774323 
	C642.023376,149.918961 630.405518,144.785904 626.627014,132.870407 
	C619.840881,132.870407 613.097656,132.870407 606.197632,132.870407 
	C606.295044,140.802612 609.157104,147.066788 614.805176,152.116501 
	C627.800903,163.735458 658.735413,164.031570 671.886719,152.582932 
	C679.237793,146.183594 681.382812,137.867889 679.866272,128.595520 
	C678.450134,119.937134 672.038086,115.743515 664.422424,113.275414 
	C658.893921,111.483711 653.121826,110.458199 647.523621,108.862175 
	C642.747864,107.500633 637.795959,106.344193 633.414673,104.124580 
	C628.752625,101.762787 629.067444,95.762154 633.465820,93.201691 
	C642.136719,88.154022 654.382446,92.581284 657.461365,101.968018 
	C664.201660,101.968018 670.973450,101.968018 678.110107,101.968018 
	C677.093689,92.206406 672.995728,84.678474 664.134277,80.828300 
	C649.684937,74.550362 634.887512,74.663132 620.480225,80.892426 
	C612.236694,84.456680 608.719727,91.753746 608.053772,100.519272 
	C607.428101,108.754623 610.931641,114.648674 618.755188,118.855705 
M898.922302,90.475899 
	C898.384888,90.275749 897.384766,90.087982 897.378967,89.873611 
	C897.282532,86.266632 897.310120,82.656342 897.310120,79.003883 
	C889.988525,79.003883 883.266174,79.003883 876.525146,79.003883 
	C876.525146,105.710220 876.525146,132.094360 876.525146,158.408997 
	C883.946228,158.408997 891.001587,158.408997 898.308777,158.408997 
	C898.308777,153.883530 898.256653,149.725464 898.319214,145.569107 
	C898.471985,135.416595 898.049683,125.204010 899.026001,115.128693 
	C900.172058,103.301231 907.798218,97.199799 919.668884,97.140038 
	C922.078857,97.127899 924.490051,97.347427 927.042969,97.466820 
	C927.042969,90.551712 927.042969,83.926811 927.042969,77.346581 
	C917.036255,74.738380 906.493774,79.515625 898.922302,90.475899 
M585.434448,78.718292 
	C580.658203,78.718292 575.881958,78.718292 570.935852,78.718292 
	C570.935852,105.581665 570.935852,131.936813 570.935852,158.503189 
	C578.252197,158.503189 585.310852,158.503189 592.549744,158.503189 
	C592.549744,131.873993 592.549744,105.515625 592.549744,78.719849 
	C590.334717,78.719849 588.375183,78.719849 585.434448,78.718292 
M578.638428,66.594795 
	C583.232727,66.594795 587.827026,66.594795 592.497070,66.594795 
	C592.497070,60.183090 592.497070,54.329659 592.497070,48.400284 
	C585.120178,48.400284 578.081421,48.400284 570.965820,48.400284 
	C570.965820,54.544968 570.965820,60.425739 570.965820,66.593658 
	C573.415466,66.593658 575.551941,66.593658 578.638428,66.594795 
M502.590424,209.930710 
	C501.266449,212.521698 499.942474,215.112686 498.545929,217.845703 
	C497.368530,214.954910 496.275269,212.270798 495.182037,209.586670 
	C494.562225,209.858170 493.942413,210.129669 493.322601,210.401169 
	C494.794525,214.979980 496.266479,219.558807 497.738403,224.137634 
	C498.193939,224.131332 498.649506,224.125046 499.105042,224.118744 
	C500.259247,221.373016 501.413422,218.627289 502.848175,215.214203 
	C504.263763,218.554230 505.434631,221.316803 506.605469,224.079361 
	C507.032959,224.046921 507.460449,224.014465 507.887970,223.982025 
	C509.427277,219.455261 510.966614,214.928497 512.505981,210.401733 
	C511.938721,210.148834 511.371490,209.895950 510.804260,209.643051 
	C509.536896,212.247223 508.269531,214.851395 506.914764,217.635208 
	C505.583008,214.810104 504.463074,212.434372 502.590424,209.930710 
M820.722107,220.025757 
	C821.000366,221.348740 821.278625,222.671722 821.556885,223.994705 
	C822.042847,223.957794 822.528809,223.920898 823.014832,223.883987 
	C823.261353,221.275742 823.507812,218.667496 823.813110,215.437363 
	C826.622925,218.743027 828.964966,221.498352 831.993896,225.061798 
	C831.993896,219.084976 831.993896,214.493896 831.993896,209.902832 
	C831.486938,209.875290 830.979980,209.847733 830.473022,209.820190 
	C830.228333,212.508301 829.983582,215.196411 829.690857,218.411865 
	C826.846497,215.040466 824.484070,212.240311 822.121643,209.440140 
	C821.653992,209.615555 821.186401,209.790985 820.718750,209.966400 
	C820.718750,213.033234 820.718750,216.100052 820.722107,220.025757 
M671.526245,216.505310 
	C671.626465,218.997391 671.726746,221.489471 671.826965,223.981567 
	C672.398560,223.953659 672.970154,223.925751 673.541748,223.897858 
	C673.892273,222.292496 674.242798,220.687134 674.593323,219.081772 
	C675.318848,218.533051 676.044312,217.984329 676.769836,217.435608 
	C677.792053,219.985641 678.814270,222.535675 679.836548,225.085709 
	C680.666931,224.581161 681.497375,224.076599 682.327820,223.572052 
	C679.439453,220.908859 678.975525,218.450165 680.963684,215.348938 
	C681.435425,214.613022 679.049561,211.346558 677.343018,210.149979 
	C676.136963,209.304352 673.859863,209.986298 671.510071,209.986298 
	C671.510071,212.023560 671.510071,213.811844 671.526245,216.505310 
M728.388977,222.560364 
	C729.240479,222.634903 730.534180,223.102844 730.873352,222.721603 
	C733.524048,219.742111 736.263550,220.663132 739.054138,222.292984 
	C739.875183,222.772552 740.576965,223.456451 741.333374,224.046707 
	C741.674011,223.766861 742.014709,223.487000 742.355347,223.207153 
	C740.139099,218.585098 737.922852,213.963043 735.706665,209.341003 
	C735.220581,209.473618 734.734497,209.606247 734.248413,209.738861 
	C732.391724,213.786728 730.535034,217.834610 728.388977,222.560364 
M800.859253,209.748062 
	C797.277100,210.541946 794.426758,212.544785 794.673279,216.339859 
	C794.821716,218.626404 796.265930,221.936829 798.045593,222.731247 
	C800.312622,223.743317 804.032410,223.530167 806.134827,222.235687 
	C807.796326,221.212677 808.807434,217.682556 808.599060,215.403824 
	C808.262146,211.718994 805.283142,209.926987 800.859253,209.748062 
M630.247375,209.751175 
	C626.574829,209.806198 623.833984,211.270813 622.792236,214.986008 
	C621.719604,218.811417 623.690979,222.433685 627.361572,223.658691 
	C631.238403,224.952515 635.282776,222.990128 636.507690,219.220795 
	C637.848877,215.093704 635.945068,211.897781 630.247375,209.751175 
M436.778748,221.040314 
	C439.325684,221.760101 441.872589,222.479904 445.235809,223.430389 
	C442.974060,218.629730 440.807556,214.031174 438.641022,209.432617 
	C438.126251,209.519135 437.611481,209.605667 437.096741,209.692200 
	C435.047913,214.271561 432.999084,218.850906 430.950287,223.430267 
	C431.324432,223.640869 431.698547,223.851471 432.072693,224.062073 
	C433.367828,223.039215 434.662994,222.016357 436.778748,221.040314 
M656.825684,218.821762 
	C655.723267,219.798004 654.620850,220.774261 653.518433,221.750504 
	C652.757935,220.413620 651.534485,219.141022 651.337952,217.725830 
	C650.981689,215.159851 651.237000,212.508926 651.237000,209.893463 
	C650.387634,209.927063 649.538208,209.960663 648.688843,209.994278 
	C648.973389,213.881378 648.620239,217.962936 649.728760,221.598831 
	C650.758911,224.977661 656.046814,225.337158 657.964050,222.317673 
	C660.462402,218.383209 659.335571,214.110214 658.814392,209.994202 
	C658.159485,209.974304 657.504578,209.954391 656.849670,209.934479 
	C656.849670,212.606339 656.849670,215.278214 656.825684,218.821762 
M756.542480,218.157562 
	C757.573486,220.207901 758.604553,222.258240 759.635620,224.308578 
	C760.148071,224.250031 760.660461,224.191483 761.172913,224.132935 
	C763.250610,219.523972 765.328308,214.915024 767.406006,210.306061 
	C766.757263,209.977280 766.108521,209.648499 765.459778,209.319733 
	C763.812805,212.633667 762.165833,215.947617 760.336670,219.628143 
	C758.363403,216.045685 756.559204,212.770035 754.754944,209.494400 
	C754.221069,209.805542 753.687134,210.116699 753.153198,210.427841 
	C754.170410,212.780151 755.187683,215.132462 756.542480,218.157562 
M387.343567,222.436752 
	C390.526672,224.603622 393.434662,224.597382 396.116486,221.755554 
	C392.494781,221.777557 388.562103,222.656738 387.628815,217.905777 
	C386.392303,211.611191 392.332062,212.857834 396.246887,211.248703 
	C392.267639,208.919250 389.275146,209.357315 386.761993,212.077423 
	C383.818634,215.263107 384.074768,218.649719 387.343567,222.436752 
M847.883789,218.273376 
	C849.272034,217.968887 850.660278,217.664398 852.750610,217.205902 
	C850.294739,215.666382 848.816956,214.740036 847.339172,213.813660 
	C849.194580,213.031448 851.050049,212.249237 853.942383,211.029877 
	C850.309937,211.029877 847.708862,211.029877 845.098877,211.029877 
	C845.098877,215.311661 845.098877,219.540237 845.098877,223.406250 
	C848.081299,223.406250 850.703918,223.406250 853.326538,223.406250 
	C853.352722,222.942963 853.378906,222.479675 853.405151,222.016388 
	C852.171143,221.854706 850.794067,221.977188 849.744690,221.448822 
	C848.759338,220.952637 848.120239,219.768692 847.883789,218.273376 
M563.774597,218.168518 
	C565.057739,218.168518 566.340820,218.168518 567.271179,218.168518 
	C567.961609,220.350327 568.492004,222.026199 569.022339,223.702072 
	C569.190796,223.595001 569.359192,223.487930 569.527649,223.380844 
	C569.527649,218.929581 569.527649,214.478302 569.527649,210.027023 
	C569.174927,209.997925 568.822205,209.968811 568.469482,209.939713 
	C568.164734,211.875946 567.859985,213.812164 567.532471,215.892700 
	C565.687195,215.789291 564.096497,215.700134 562.588989,215.615646 
	C562.228882,213.473907 561.929749,211.694534 561.630615,209.915161 
	C561.297607,209.958420 560.964600,210.001663 560.631592,210.044922 
	C560.631592,214.629562 560.631592,219.214203 560.631592,223.798843 
	C560.966553,223.818512 561.301514,223.838165 561.636475,223.857834 
	C562.067383,222.017105 562.498352,220.176392 563.774597,218.168518 
M607.640381,211.160919 
	C606.685303,212.339142 605.730225,213.517349 604.903564,214.537170 
	C602.898804,212.567413 601.351868,211.047470 599.804932,209.527512 
	C599.690857,209.762283 599.576843,209.997055 599.462769,210.231827 
	C601.249084,214.798920 603.035339,219.366028 604.792786,223.859329 
	C606.576538,219.333084 608.391541,214.727493 610.335388,209.794907 
	C609.498840,210.075821 608.793579,210.312653 607.640381,211.160919 
M413.513214,215.845627 
	C408.798645,217.243942 411.024200,212.110703 408.591278,210.324005 
	C408.591278,215.024048 408.591278,219.026642 408.591278,223.029221 
	C408.926758,223.053513 409.262268,223.077789 409.597748,223.102081 
	C409.911011,221.484741 410.224274,219.867416 410.510712,218.388550 
	C412.786469,218.388550 414.737823,218.388550 416.659576,218.388550 
	C417.016571,220.347305 417.332794,222.082443 417.649048,223.817581 
	C417.943329,223.740723 418.237640,223.663864 418.531921,223.587006 
	C418.531921,219.083176 418.531921,214.579346 418.531921,210.075516 
	C416.558624,215.057907 416.558624,215.057907 413.513214,215.845627 
M714.037231,210.457932 
	C712.720947,210.248688 711.404602,210.039444 710.282593,209.861099 
	C710.282593,214.908508 710.282593,219.326981 710.282593,223.745438 
	C710.757690,223.805374 711.232849,223.865311 711.707947,223.925232 
	C712.052612,222.064880 712.397339,220.204529 712.743347,218.337021 
	C714.292725,218.016861 715.812134,217.702896 717.950989,217.260941 
	C715.816162,214.971130 708.692078,216.916092 714.037231,210.457932 
M540.033813,210.881638 
	C539.776306,211.037277 539.497131,211.168457 539.275879,211.364899 
	C539.216980,211.417191 539.323059,211.805542 539.374207,211.810150 
	C542.572083,212.099319 541.909180,214.446518 541.943054,216.491531 
	C541.983521,218.936356 542.148743,221.379089 542.259888,223.822723 
	C542.754822,223.843475 543.249695,223.864212 543.744568,223.884964 
	C544.338501,219.637451 544.932434,215.389954 545.567688,210.846695 
	C544.780701,210.846695 542.843872,210.846695 540.033813,210.881638 
M526.660522,220.112885 
	C526.660522,216.699112 526.660522,213.285339 526.660522,209.871567 
	C525.967957,209.897217 525.275330,209.922882 524.582764,209.948547 
	C524.582764,214.532120 524.582764,219.115692 524.582764,223.699265 
	C524.953247,223.815094 525.323792,223.930939 525.694275,224.046783 
	C526.017029,223.030853 526.339722,222.014938 526.660522,220.112885 
M462.239838,218.533752 
	C462.714813,216.052078 463.189789,213.570404 463.640106,211.217545 
	C461.956146,211.217545 459.173096,211.217545 456.390076,211.217545 
	C460.769012,210.895935 459.960236,213.943466 459.938049,216.448090 
	C459.916229,218.910675 459.933258,221.373611 459.933258,223.836411 
	C460.554626,223.854187 461.176025,223.871964 461.797394,223.889755 
	C461.944885,222.406540 462.092377,220.923325 462.239838,218.533752 
z"/>
<path fill="#FDFDFD" opacity="1.000000" stroke="none" 
	d="
M263.992981,242.121185 
	C187.540894,242.120163 111.587051,242.120163 35.329269,242.120163 
	C35.329269,196.759933 35.329269,151.674622 35.329269,106.237991 
	C47.193977,101.962250 59.174026,97.496941 71.274323,93.385506 
	C74.406540,92.321243 75.234665,90.794792 75.213013,87.667168 
	C75.079323,68.353783 75.145866,49.039021 75.145866,29.384796 
	C128.760223,29.384796 182.142014,29.384796 235.963638,29.384796 
	C235.963638,50.127525 235.963638,70.876488 235.963638,91.811234 
	C248.333481,96.240410 260.371246,100.566689 272.423645,104.851822 
	C274.657867,105.646179 276.506470,106.201080 276.497803,109.431068 
	C276.379578,153.425125 276.418274,197.419617 276.418274,242.122208 
	C272.352600,242.122208 268.421936,242.122208 263.992981,242.121185 
M204.803894,157.277786 
	C220.667252,148.115662 236.525070,138.943939 252.398972,129.800110 
	C255.329559,128.112015 257.317993,125.897232 255.293472,122.537758 
	C253.424973,119.437202 250.606583,119.997696 247.884598,121.611725 
	C246.595184,122.376297 245.292755,123.118919 243.995987,123.871101 
	C238.471085,127.075806 232.946075,130.280365 226.628632,133.944626 
	C226.628632,101.494499 226.628632,70.095413 226.628632,38.644241 
	C179.083054,38.644241 132.012360,38.644241 84.429672,38.644241 
	C84.429672,70.304932 84.429672,101.670769 84.429672,133.901932 
	C77.099289,129.630753 70.489059,125.854317 63.960346,121.941864 
	C60.913414,120.115952 57.975639,119.132446 55.896252,122.919785 
	C53.879711,126.592636 56.630562,128.370728 59.341953,129.943176 
	C86.565872,145.731491 113.765823,161.561417 141.033813,177.273270 
	C150.777588,182.887650 160.651184,182.848083 170.448547,177.166245 
	C181.683624,170.650650 192.942795,164.176605 204.803894,157.277786 
z"/>
<path fill="#FAFAFA" opacity="1.000000" stroke="none" 
	d="
M351.525452,59.391434 
	C356.467468,80.477242 361.279083,101.166580 366.090698,121.855919 
	C366.362488,121.853661 366.634277,121.851402 366.906067,121.849144 
	C370.581909,107.529236 374.262024,93.210426 377.932037,78.889030 
	C380.246033,69.859238 382.671661,60.854965 384.775574,51.776283 
	C385.431152,48.947330 386.570953,48.011433 389.459595,48.112843 
	C395.761932,48.334099 402.077393,48.181240 408.600494,48.181240 
	C414.841431,73.270958 421.004150,98.046211 427.166901,122.821472 
	C427.428345,122.818199 427.689789,122.814926 427.951233,122.811653 
	C433.850922,98.091736 439.750610,73.371826 445.699463,48.445976 
	C453.701111,48.445976 461.446106,48.445976 469.700562,48.445976 
	C459.795319,85.250557 449.947845,121.840553 439.997528,158.812683 
	C432.510040,158.812683 425.221741,158.960968 417.953003,158.650803 
	C416.878540,158.604935 415.313477,156.540466 414.959229,155.157867 
	C409.549316,134.041748 404.306610,112.882797 399.011566,91.737190 
	C398.619324,90.170738 398.125122,88.629829 396.540192,86.886940 
	C396.056305,88.273521 395.455872,89.631386 395.105988,91.050995 
	C389.928833,112.058144 384.713928,133.056595 379.703888,154.103745 
	C378.883392,157.550690 377.728882,159.163803 373.821442,158.865616 
	C368.359802,158.448807 362.839325,158.655304 357.350220,158.812881 
	C354.834076,158.885101 353.553253,158.319626 352.835846,155.578476 
	C343.652191,120.488609 334.321045,85.437355 325.040192,50.372887 
	C324.917847,49.910545 324.962463,49.404015 324.903442,48.543087 
	C332.873016,48.543087 340.746063,48.543087 348.971619,48.543087 
	C349.748871,51.895252 350.571960,55.445110 351.525452,59.391434 
z"/>
<path fill="#FBFBFB" opacity="1.000000" stroke="none" 
	d="
M750.338318,78.426208 
	C765.179138,83.951958 771.669312,95.485931 773.759460,109.764694 
	C775.783936,123.594200 774.465698,137.013031 765.417419,148.635849 
	C753.336182,164.154648 730.434692,165.257538 716.949890,150.943481 
	C716.644653,150.619492 716.211609,150.415848 715.276489,149.765350 
	C715.276489,162.260376 715.276489,174.276794 715.276489,186.692719 
	C707.737976,186.692719 700.684326,186.692719 693.258057,186.692719 
	C693.258057,150.841995 693.258057,115.164810 693.258057,79.092911 
	C699.866821,79.092911 706.597656,79.092911 713.851196,79.092911 
	C713.851196,81.694557 713.851196,84.556938 713.851196,88.749947 
	C724.053284,75.861702 736.378662,74.589310 750.338318,78.426208 
M714.653687,123.764366 
	C715.441895,126.982803 715.845398,130.359894 717.094543,133.388199 
	C720.140198,140.771942 726.018860,144.224976 734.061890,144.018677 
	C741.945129,143.816498 747.323486,140.142044 749.977722,132.677292 
	C753.285095,123.375893 753.243774,114.013290 749.782715,104.813728 
	C746.866638,97.062996 740.351685,93.039711 732.234070,93.411041 
	C724.270569,93.775330 718.333252,98.016403 716.322021,106.136871 
	C714.984314,111.537926 715.098389,117.298561 714.653687,123.764366 
z"/>
<path fill="#F7F7F7" opacity="1.000000" stroke="none" 
	d="
M511.068542,79.955093 
	C519.756531,75.326767 528.508179,75.808929 537.158264,78.319130 
	C544.334167,80.401535 549.298523,85.405090 551.145447,92.683060 
	C552.442749,97.795197 553.287903,103.149971 553.387085,108.414246 
	C553.685181,124.231270 553.522461,140.057053 553.523254,155.879410 
	C553.523315,156.681961 553.371643,157.484512 553.266785,158.523224 
	C545.986389,158.523224 538.932373,158.523224 531.355652,158.523224 
	C531.355652,153.842148 531.376099,149.387070 531.351685,144.932236 
	C531.285828,132.942703 531.445374,120.945160 531.047180,108.966354 
	C530.721069,99.153488 526.450317,94.539253 518.353577,94.098396 
	C508.903992,93.583878 503.027618,97.917343 501.433014,107.319397 
	C500.604187,112.206467 500.606232,117.264267 500.558472,122.248070 
	C500.443756,134.210541 500.521393,146.174866 500.521393,158.460358 
	C493.086609,158.460358 486.028198,158.460358 478.635590,158.460358 
	C478.635590,121.899597 478.635590,85.353462 478.635590,48.483078 
	C485.770905,48.483078 492.839111,48.483078 500.479401,48.483078 
	C500.479401,61.671207 500.479401,74.884323 500.479401,88.539032 
	C504.273804,85.428894 507.506531,82.779121 511.068542,79.955093 
z"/>
<path fill="#FAFAFA" opacity="1.000000" stroke="none" 
	d="
M833.210571,142.590698 
	C835.509827,141.163437 838.402344,140.327011 839.205872,138.547409 
	C841.765076,132.878952 846.436035,133.789261 850.974365,133.792953 
	C854.456909,133.795792 857.939392,133.793518 861.891846,133.793518 
	C858.519287,145.151352 852.210388,153.416992 841.573914,157.935715 
	C823.162720,165.757370 799.570923,158.792282 789.823914,142.791901 
	C778.812683,124.716248 782.529541,98.605583 798.027588,85.709373 
	C816.626587,70.232689 853.720886,71.873833 862.047791,107.169968 
	C863.319214,112.559052 863.340637,118.243019 863.996033,124.307083 
	C844.037781,124.307083 825.110840,124.307083 806.197815,124.307083 
	C805.948059,139.929947 816.874695,147.314514 833.210571,142.590698 
M825.496094,109.917946 
	C830.584167,109.917946 835.672241,109.917946 840.809143,109.917946 
	C839.402161,98.390862 833.739929,93.172279 823.269287,93.347923 
	C813.138062,93.517868 806.845825,99.476791 806.183655,109.917519 
	C812.301697,109.917519 818.400024,109.917519 825.496094,109.917946 
z"/>
<path fill="#FAFAFA" opacity="1.000000" stroke="none" 
	d="
M618.422363,118.690819 
	C610.931641,114.648674 607.428101,108.754623 608.053772,100.519272 
	C608.719727,91.753746 612.236694,84.456680 620.480225,80.892426 
	C634.887512,74.663132 649.684937,74.550362 664.134277,80.828300 
	C672.995728,84.678474 677.093689,92.206406 678.110107,101.968018 
	C670.973450,101.968018 664.201660,101.968018 657.461365,101.968018 
	C654.382446,92.581284 642.136719,88.154022 633.465820,93.201691 
	C629.067444,95.762154 628.752625,101.762787 633.414673,104.124580 
	C637.795959,106.344193 642.747864,107.500633 647.523621,108.862175 
	C653.121826,110.458199 658.893921,111.483711 664.422424,113.275414 
	C672.038086,115.743515 678.450134,119.937134 679.866272,128.595520 
	C681.382812,137.867889 679.237793,146.183594 671.886719,152.582932 
	C658.735413,164.031570 627.800903,163.735458 614.805176,152.116501 
	C609.157104,147.066788 606.295044,140.802612 606.197632,132.870407 
	C613.097656,132.870407 619.840881,132.870407 626.627014,132.870407 
	C630.405518,144.785904 642.023376,149.918961 652.773438,143.774323 
	C655.196777,142.389160 657.443848,138.799301 657.659729,136.058014 
	C657.827698,133.924118 655.190796,130.452026 652.964539,129.470474 
	C647.693481,127.146477 641.917053,125.976868 636.359802,124.291534 
	C630.482605,122.509178 624.622681,120.670036 618.422363,118.690819 
z"/>
<path fill="#FAFAFA" opacity="1.000000" stroke="none" 
	d="
M899.082031,90.149384 
	C906.493774,79.515625 917.036255,74.738380 927.042969,77.346581 
	C927.042969,83.926811 927.042969,90.551712 927.042969,97.466820 
	C924.490051,97.347427 922.078857,97.127899 919.668884,97.140038 
	C907.798218,97.199799 900.172058,103.301231 899.026001,115.128693 
	C898.049683,125.204010 898.471985,135.416595 898.319214,145.569107 
	C898.256653,149.725464 898.308777,153.883530 898.308777,158.408997 
	C891.001587,158.408997 883.946228,158.408997 876.525146,158.408997 
	C876.525146,132.094360 876.525146,105.710220 876.525146,79.003883 
	C883.266174,79.003883 889.988525,79.003883 897.310120,79.003883 
	C897.310120,82.656342 897.282532,86.266632 897.378967,89.873611 
	C897.384766,90.087982 898.384888,90.275749 899.082031,90.149384 
z"/>
<path fill="#FAFAFA" opacity="1.000000" stroke="none" 
	d="
M585.925049,78.719070 
	C588.375183,78.719849 590.334717,78.719849 592.549744,78.719849 
	C592.549744,105.515625 592.549744,131.873993 592.549744,158.503189 
	C585.310852,158.503189 578.252197,158.503189 570.935852,158.503189 
	C570.935852,131.936813 570.935852,105.581665 570.935852,78.718292 
	C575.881958,78.718292 580.658203,78.718292 585.925049,78.719070 
z"/>
<path fill="#F2F2F2" opacity="1.000000" stroke="none" 
	d="
M578.163452,66.594223 
	C575.551941,66.593658 573.415466,66.593658 570.965820,66.593658 
	C570.965820,60.425739 570.965820,54.544968 570.965820,48.400284 
	C578.081421,48.400284 585.120178,48.400284 592.497070,48.400284 
	C592.497070,54.329659 592.497070,60.183090 592.497070,66.594795 
	C587.827026,66.594795 583.232727,66.594795 578.163452,66.594223 
z"/>
<path fill="#D9D9D9" opacity="1.000000" stroke="none" 
	d="
M502.966797,209.994675 
	C504.463074,212.434372 505.583008,214.810104 506.914764,217.635208 
	C508.269531,214.851395 509.536896,212.247223 510.804260,209.643051 
	C511.371490,209.895950 511.938721,210.148834 512.505981,210.401733 
	C510.966614,214.928497 509.427277,219.455261 507.887970,223.982025 
	C507.460449,224.014465 507.032959,224.046921 506.605469,224.079361 
	C505.434631,221.316803 504.263763,218.554230 502.848175,215.214203 
	C501.413422,218.627289 500.259247,221.373016 499.105042,224.118744 
	C498.649506,224.125046 498.193939,224.131332 497.738403,224.137634 
	C496.266479,219.558807 494.794525,214.979980 493.322601,210.401169 
	C493.942413,210.129669 494.562225,209.858170 495.182037,209.586670 
	C496.275269,212.270798 497.368530,214.954910 498.545929,217.845703 
	C499.942474,215.112686 501.266449,212.521698 502.966797,209.994675 
z"/>
<path fill="#D2D2D2" opacity="1.000000" stroke="none" 
	d="
M820.720459,219.596313 
	C820.718750,216.100052 820.718750,213.033234 820.718750,209.966400 
	C821.186401,209.790985 821.653992,209.615555 822.121643,209.440140 
	C824.484070,212.240311 826.846497,215.040466 829.690857,218.411865 
	C829.983582,215.196411 830.228333,212.508301 830.473022,209.820190 
	C830.979980,209.847733 831.486938,209.875290 831.993896,209.902832 
	C831.993896,214.493896 831.993896,219.084976 831.993896,225.061798 
	C828.964966,221.498352 826.622925,218.743027 823.813110,215.437363 
	C823.507812,218.667496 823.261353,221.275742 823.014832,223.883987 
	C822.528809,223.920898 822.042847,223.957794 821.556885,223.994705 
	C821.278625,222.671722 821.000366,221.348740 820.720459,219.596313 
z"/>
<path fill="#E3E3E3" opacity="1.000000" stroke="none" 
	d="
M671.518188,216.052734 
	C671.510071,213.811844 671.510071,212.023560 671.510071,209.986298 
	C673.859863,209.986298 676.136963,209.304352 677.343018,210.149979 
	C679.049561,211.346558 681.435425,214.613022 680.963684,215.348938 
	C678.975525,218.450165 679.439453,220.908859 682.327820,223.572052 
	C681.497375,224.076599 680.666931,224.581161 679.836548,225.085709 
	C678.814270,222.535675 677.792053,219.985641 676.769836,217.435608 
	C676.044312,217.984329 675.318848,218.533051 674.593323,219.081772 
	C674.242798,220.687134 673.892273,222.292496 673.541748,223.897858 
	C672.970154,223.925751 672.398560,223.953659 671.826965,223.981567 
	C671.726746,221.489471 671.626465,218.997391 671.518188,216.052734 
z"/>
<path fill="#D2D2D2" opacity="1.000000" stroke="none" 
	d="
M728.533691,222.221420 
	C730.535034,217.834610 732.391724,213.786728 734.248413,209.738861 
	C734.734497,209.606247 735.220581,209.473618 735.706665,209.341003 
	C737.922852,213.963043 740.139099,218.585098 742.355347,223.207153 
	C742.014709,223.487000 741.674011,223.766861 741.333374,224.046707 
	C740.576965,223.456451 739.875183,222.772552 739.054138,222.292984 
	C736.263550,220.663132 733.524048,219.742111 730.873352,222.721603 
	C730.534180,223.102844 729.240479,222.634903 728.533691,222.221420 
z"/>
<path fill="#D9D9D9" opacity="1.000000" stroke="none" 
	d="
M801.212341,209.717438 
	C805.283142,209.926987 808.262146,211.718994 808.599060,215.403824 
	C808.807434,217.682556 807.796326,221.212677 806.134827,222.235687 
	C804.032410,223.530167 800.312622,223.743317 798.045593,222.731247 
	C796.265930,221.936829 794.821716,218.626404 794.673279,216.339859 
	C794.426758,212.544785 797.277100,210.541946 801.212341,209.717438 
M806.140320,218.162857 
	C805.214966,216.266190 804.629089,214.024780 803.210999,212.628555 
	C802.569885,211.997284 799.752319,212.543350 798.863953,213.464035 
	C797.810242,214.556076 797.185364,216.739334 797.472412,218.239670 
	C797.714905,219.507614 799.587646,221.433777 800.625366,221.364670 
	C802.428406,221.244583 804.143799,219.809677 806.140320,218.162857 
z"/>
<path fill="#D9D9D9" opacity="1.000000" stroke="none" 
	d="
M630.597595,209.819275 
	C635.945068,211.897781 637.848877,215.093704 636.507690,219.220795 
	C635.282776,222.990128 631.238403,224.952515 627.361572,223.658691 
	C623.690979,222.433685 621.719604,218.811417 622.792236,214.986008 
	C623.833984,211.270813 626.574829,209.806198 630.597595,209.819275 
M631.852234,212.723633 
	C628.604065,211.470688 625.949951,212.400223 625.387573,215.785156 
	C625.114197,217.430893 626.358521,220.071945 627.756714,221.013947 
	C628.848999,221.749786 631.762390,221.149536 632.941223,220.101868 
	C635.311523,217.995255 634.670288,215.356293 631.852234,212.723633 
z"/>
<path fill="#D7D7D7" opacity="1.000000" stroke="none" 
	d="
M436.368469,221.016907 
	C434.662994,222.016357 433.367828,223.039215 432.072693,224.062073 
	C431.698547,223.851471 431.324432,223.640869 430.950287,223.430267 
	C432.999084,218.850906 435.047913,214.271561 437.096741,209.692200 
	C437.611481,209.605667 438.126251,209.519135 438.641022,209.432617 
	C440.807556,214.031174 442.974060,218.629730 445.235809,223.430389 
	C441.872589,222.479904 439.325684,221.760101 436.368469,221.016907 
z"/>
<path fill="#E3E3E3" opacity="1.000000" stroke="none" 
	d="
M656.837646,218.385925 
	C656.849670,215.278214 656.849670,212.606339 656.849670,209.934479 
	C657.504578,209.954391 658.159485,209.974304 658.814392,209.994202 
	C659.335571,214.110214 660.462402,218.383209 657.964050,222.317673 
	C656.046814,225.337158 650.758911,224.977661 649.728760,221.598831 
	C648.620239,217.962936 648.973389,213.881378 648.688843,209.994278 
	C649.538208,209.960663 650.387634,209.927063 651.237000,209.893463 
	C651.237000,212.508926 650.981689,215.159851 651.337952,217.725830 
	C651.534485,219.141022 652.757935,220.413620 653.518433,221.750519 
	C654.620850,220.774261 655.723267,219.798004 656.837646,218.385925 
z"/>
<path fill="#D2D2D2" opacity="1.000000" stroke="none" 
	d="
M756.373657,217.821167 
	C755.187683,215.132462 754.170410,212.780151 753.153198,210.427841 
	C753.687134,210.116699 754.221069,209.805542 754.754944,209.494400 
	C756.559204,212.770035 758.363403,216.045685 760.336670,219.628143 
	C762.165833,215.947617 763.812805,212.633667 765.459778,209.319733 
	C766.108521,209.648499 766.757263,209.977280 767.406006,210.306061 
	C765.328308,214.915024 763.250610,219.523972 761.172913,224.132935 
	C760.660461,224.191483 760.148071,224.250031 759.635620,224.308578 
	C758.604553,222.258240 757.573486,220.207901 756.373657,217.821167 
z"/>
<path fill="#D2D2D2" opacity="1.000000" stroke="none" 
	d="
M387.061646,222.183517 
	C384.074768,218.649719 383.818634,215.263107 386.761993,212.077423 
	C389.275146,209.357315 392.267639,208.919250 396.246887,211.248703 
	C392.332062,212.857834 386.392303,211.611191 387.628815,217.905777 
	C388.562103,222.656738 392.494781,221.777557 396.116486,221.755554 
	C393.434662,224.597382 390.526672,224.603622 387.061646,222.183517 
z"/>
<path fill="#E6E6E6" opacity="1.000000" stroke="none" 
	d="
M847.606323,218.580383 
	C848.120239,219.768692 848.759338,220.952637 849.744690,221.448822 
	C850.794067,221.977188 852.171143,221.854706 853.405151,222.016388 
	C853.378906,222.479675 853.352722,222.942963 853.326538,223.406250 
	C850.703918,223.406250 848.081299,223.406250 845.098877,223.406250 
	C845.098877,219.540237 845.098877,215.311661 845.098877,211.029877 
	C847.708862,211.029877 850.309937,211.029877 853.942383,211.029877 
	C851.050049,212.249237 849.194580,213.031448 847.339172,213.813660 
	C848.816956,214.740036 850.294739,215.666382 852.750610,217.205902 
	C850.660278,217.664398 849.272034,217.968887 847.606323,218.580383 
z"/>
<path fill="#F2F2F2" opacity="1.000000" stroke="none" 
	d="
M563.351929,218.252090 
	C562.498352,220.176392 562.067383,222.017105 561.636475,223.857834 
	C561.301514,223.838165 560.966553,223.818512 560.631592,223.798843 
	C560.631592,219.214203 560.631592,214.629562 560.631592,210.044922 
	C560.964600,210.001663 561.297607,209.958420 561.630615,209.915161 
	C561.929749,211.694534 562.228882,213.473907 562.588989,215.615646 
	C564.096497,215.700134 565.687195,215.789291 567.532471,215.892700 
	C567.859985,213.812164 568.164734,211.875946 568.469482,209.939713 
	C568.822205,209.968811 569.174927,209.997925 569.527649,210.027023 
	C569.527649,214.478302 569.527649,218.929581 569.527649,223.380844 
	C569.359192,223.487930 569.190796,223.595001 569.022339,223.702072 
	C568.492004,222.026199 567.961609,220.350327 567.271179,218.168518 
	C566.340820,218.168518 565.057739,218.168518 563.351929,218.252090 
z"/>
<path fill="#D2D2D2" opacity="1.000000" stroke="none" 
	d="
M607.864319,210.855209 
	C608.793579,210.312653 609.498840,210.075821 610.335388,209.794907 
	C608.391541,214.727493 606.576538,219.333084 604.792786,223.859329 
	C603.035339,219.366028 601.249084,214.798920 599.462769,210.231827 
	C599.576843,209.997055 599.690857,209.762283 599.804932,209.527512 
	C601.351868,211.047470 602.898804,212.567413 604.903564,214.537170 
	C605.730225,213.517349 606.685303,212.339142 607.864319,210.855209 
z"/>
<path fill="#F2F2F2" opacity="1.000000" stroke="none" 
	d="
M413.959351,215.846222 
	C416.558624,215.057907 416.558624,215.057907 418.531921,210.075516 
	C418.531921,214.579346 418.531921,219.083176 418.531921,223.587006 
	C418.237640,223.663864 417.943329,223.740723 417.649048,223.817581 
	C417.332794,222.082443 417.016571,220.347305 416.659576,218.388550 
	C414.737823,218.388550 412.786469,218.388550 410.510712,218.388550 
	C410.224274,219.867416 409.911011,221.484741 409.597748,223.102081 
	C409.262268,223.077789 408.926758,223.053513 408.591278,223.029221 
	C408.591278,219.026642 408.591278,215.024048 408.591278,210.324005 
	C411.024200,212.110703 408.798645,217.243942 413.959351,215.846222 
z"/>
<path fill="#E3E3E3" opacity="1.000000" stroke="none" 
	d="
M714.061035,210.929886 
	C708.692078,216.916092 715.816162,214.971130 717.950989,217.260941 
	C715.812134,217.702896 714.292725,218.016861 712.743347,218.337021 
	C712.397339,220.204529 712.052612,222.064880 711.707947,223.925232 
	C711.232849,223.865311 710.757690,223.805374 710.282593,223.745438 
	C710.282593,219.326981 710.282593,214.908508 710.282593,209.861099 
	C711.404602,210.039444 712.720947,210.248688 714.061035,210.929886 
z"/>
<path fill="#E6E6E6" opacity="1.000000" stroke="none" 
	d="
M540.470459,210.864166 
	C542.843872,210.846695 544.780701,210.846695 545.567688,210.846695 
	C544.932434,215.389954 544.338501,219.637451 543.744568,223.884964 
	C543.249695,223.864212 542.754822,223.843475 542.259888,223.822723 
	C542.148743,221.379089 541.983521,218.936356 541.943054,216.491531 
	C541.909180,214.446518 542.572083,212.099319 539.374207,211.810150 
	C539.323059,211.805542 539.216980,211.417191 539.275879,211.364899 
	C539.497131,211.168457 539.776306,211.037277 540.470459,210.864166 
z"/>
<path fill="#D2D2D2" opacity="1.000000" stroke="none" 
	d="
M526.661499,220.555954 
	C526.339722,222.014938 526.017029,223.030853 525.694275,224.046783 
	C525.323792,223.930939 524.953247,223.815094 524.582764,223.699265 
	C524.582764,219.115692 524.582764,214.532120 524.582764,209.948547 
	C525.275330,209.922882 525.967957,209.897217 526.660522,209.871567 
	C526.660522,213.285339 526.660522,216.699112 526.661499,220.555954 
z"/>
<path fill="#F2F2F2" opacity="1.000000" stroke="none" 
	d="
M462.239838,218.986938 
	C462.092377,220.923325 461.944885,222.406540 461.797394,223.889755 
	C461.176025,223.871964 460.554626,223.854187 459.933258,223.836411 
	C459.933258,221.373611 459.916229,218.910675 459.938049,216.448090 
	C459.960236,213.943466 460.769012,210.895935 456.390076,211.217545 
	C459.173096,211.217545 461.956146,211.217545 463.640106,211.217545 
	C463.189789,213.570404 462.714813,216.052078 462.239838,218.986938 
z"/>
<path fill="#030303" opacity="1.000000" stroke="none" 
	d="
M204.497696,157.481140 
	C192.942795,164.176605 181.683624,170.650650 170.448547,177.166245 
	C160.651184,182.848083 150.777588,182.887650 141.033813,177.273270 
	C113.765823,161.561417 86.565872,145.731491 59.341953,129.943176 
	C56.630562,128.370728 53.879711,126.592636 55.896252,122.919785 
	C57.975639,119.132446 60.913414,120.115952 63.960346,121.941864 
	C70.489059,125.854317 77.099289,129.630753 84.429672,133.901932 
	C84.429672,101.670769 84.429672,70.304932 84.429672,38.644241 
	C132.012360,38.644241 179.083054,38.644241 226.628632,38.644241 
	C226.628632,70.095413 226.628632,101.494499 226.628632,133.944626 
	C232.946075,130.280365 238.471085,127.075806 243.995987,123.871101 
	C245.292755,123.118919 246.595184,122.376297 247.884598,121.611725 
	C250.606583,119.997696 253.424973,119.437202 255.293472,122.537758 
	C257.317993,125.897232 255.329559,128.112015 252.398972,129.800110 
	C236.525070,138.943939 220.667252,148.115662 204.497696,157.481140 
M117.849709,88.349876 
	C116.406204,93.632217 118.122856,95.678185 124.168030,95.688782 
	C145.152237,95.725571 166.136505,95.720154 187.120758,95.743011 
	C190.697159,95.746902 194.242905,95.278831 194.210388,90.747688 
	C194.179642,86.463570 190.755722,86.108185 187.372269,86.111412 
	C166.387772,86.131447 145.402985,86.083199 124.419060,86.197731 
	C122.384384,86.208839 120.354919,87.175194 117.849709,88.349876 
M140.499893,126.480995 
	C156.326675,126.479683 172.153488,126.468437 187.980240,126.485046 
	C191.329483,126.488556 194.194290,125.644600 194.179352,121.697273 
	C194.165695,118.084076 191.542603,117.055000 188.345917,117.055885 
	C166.521576,117.061928 144.697235,117.062897 122.872887,117.061485 
	C119.604195,117.061272 117.111061,118.394295 117.117256,121.856689 
	C117.123657,125.432686 119.847290,126.460869 123.006729,126.469772 
	C128.504440,126.485260 134.002228,126.478470 140.499893,126.480995 
M198.390991,64.781975 
	C200.216965,64.776810 202.042938,64.769241 203.868912,64.767006 
	C207.056564,64.763092 209.702286,63.600174 209.794662,60.142979 
	C209.897018,56.313271 207.037262,55.219898 203.694199,55.210594 
	C196.390182,55.190269 189.085754,55.161034 181.782211,55.222084 
	C178.699280,55.247856 175.943985,56.223537 175.886917,59.850822 
	C175.825333,63.765591 178.666977,64.745316 181.983414,64.765930 
	C187.129440,64.797928 192.275787,64.778824 198.390991,64.781975 
z"/>
<path fill="#050505" opacity="1.000000" stroke="none" 
	d="
M714.608154,123.331306 
	C715.098389,117.298561 714.984314,111.537926 716.322021,106.136871 
	C718.333252,98.016403 724.270569,93.775330 732.234070,93.411041 
	C740.351685,93.039711 746.866638,97.062996 749.782715,104.813728 
	C753.243774,114.013290 753.285095,123.375893 749.977722,132.677292 
	C747.323486,140.142044 741.945129,143.816498 734.061890,144.018677 
	C726.018860,144.224976 720.140198,140.771942 717.094543,133.388199 
	C715.845398,130.359894 715.441895,126.982803 714.608154,123.331306 
z"/>
<path fill="#0C0C0C" opacity="1.000000" stroke="none" 
	d="
M824.997192,109.917732 
	C818.400024,109.917519 812.301697,109.917519 806.183655,109.917519 
	C806.845825,99.476791 813.138062,93.517868 823.269287,93.347923 
	C833.739929,93.172279 839.402161,98.390862 840.809143,109.917946 
	C835.672241,109.917946 830.584167,109.917946 824.997192,109.917732 
z"/>
<path fill="#131313" opacity="1.000000" stroke="none" 
	d="
M806.018127,218.544464 
	C804.143799,219.809677 802.428406,221.244583 800.625366,221.364670 
	C799.587646,221.433777 797.714905,219.507614 797.472412,218.239670 
	C797.185364,216.739334 797.810242,214.556076 798.863953,213.464035 
	C799.752319,212.543350 802.569885,211.997284 803.210999,212.628555 
	C804.629089,214.024780 805.214966,216.266190 806.018127,218.544464 
z"/>
<path fill="#151515" opacity="1.000000" stroke="none" 
	d="
M632.186890,212.933228 
	C634.670288,215.356293 635.311523,217.995255 632.941223,220.101868 
	C631.762390,221.149536 628.848999,221.749786 627.756714,221.013947 
	C626.358521,220.071945 625.114197,217.430893 625.387573,215.785156 
	C625.949951,212.400223 628.604065,211.470688 632.186890,212.933228 
z"/>
<path fill="#EEEEEE" opacity="1.000000" stroke="none" 
	d="
M118.086372,88.024002 
	C120.354919,87.175194 122.384384,86.208839 124.419060,86.197731 
	C145.402985,86.083199 166.387772,86.131447 187.372269,86.111412 
	C190.755722,86.108185 194.179642,86.463570 194.210388,90.747688 
	C194.242905,95.278831 190.697159,95.746902 187.120758,95.743011 
	C166.136505,95.720154 145.152237,95.725571 124.168030,95.688782 
	C118.122856,95.678185 116.406204,93.632217 118.086372,88.024002 
z"/>
<path fill="#FAFAFA" opacity="1.000000" stroke="none" 
	d="
M139.999939,126.481003 
	C134.002228,126.478470 128.504440,126.485260 123.006729,126.469772 
	C119.847290,126.460869 117.123657,125.432686 117.117256,121.856689 
	C117.111061,118.394295 119.604195,117.061272 122.872887,117.061485 
	C144.697235,117.062897 166.521576,117.061928 188.345917,117.055885 
	C191.542603,117.055000 194.165695,118.084076 194.179352,121.697273 
	C194.194290,125.644600 191.329483,126.488556 187.980240,126.485046 
	C172.153488,126.468437 156.326675,126.479683 139.999939,126.481003 
z"/>
<path fill="#ECECEC" opacity="1.000000" stroke="none" 
	d="
M197.906494,64.781677 
	C192.275787,64.778824 187.129440,64.797928 181.983414,64.765930 
	C178.666977,64.745316 175.825333,63.765591 175.886917,59.850822 
	C175.943985,56.223537 178.699280,55.247856 181.782211,55.222084 
	C189.085754,55.161034 196.390182,55.190269 203.694199,55.210594 
	C207.037262,55.219898 209.897018,56.313271 209.794662,60.142979 
	C209.702286,63.600174 207.056564,64.763092 203.868912,64.767006 
	C202.042938,64.769241 200.216965,64.776810 197.906494,64.781677 
z"/>
</svg>